<svg xmlns="http://www.w3.org/2000/svg" xmlns:xlink="http://www.w3.org/1999/xlink" width="247.5" height="221"><defs><linearGradient id="a" x1="3010.14" y1="81.406" x2="3010.14" y2="112.969" gradientUnits="userSpaceOnUse"><stop offset="Infinity" stop-color="#NaNNaNNaN" stop-opacity=".2"/></linearGradient><linearGradient id="b" x1="3050.81" y1="56.313" x2="3050.81" y2="236.156" xlink:href="#a"/></defs><path d="M2969.97 101.562l39.53 11.413 43.45-31.556-62.36 1.787a3.6 3.6 0 00-1.72.55L2969.14 95.1a3.547 3.547 0 00-1.43 1.483 3.638 3.638 0 00-.35 2.028 3.507 3.507 0 002.61 2.951z" transform="translate(-2927 -49)" fill="url(#a)" fill-rule="evenodd"/><path data-name="Vector" d="M3164.32 66.225l-43.31-9.35a25.977 25.977 0 00-21.1 4.606l-130.84 95.081-31.41-1.375a8.593 8.593 0 00-5.71 15.263l30.59 24.269a3.842 3.842 0 001.74.784 3.793 3.793 0 001.91-.166c8.73-3.368 41.25-20.625 79.68-41.731l7.7 79.131a3.808 3.808 0 002.32 3.139 3.794 3.794 0 003.87-.595l17.18-14.3a5.212 5.212 0 001.79-3.094l16.3-91.368c27.49-15.263 53.76-30.044 72.25-40.494a10.656 10.656 0 00-2.96-19.8z" transform="translate(-2927 -49)" fill="url(#b)" fill-rule="evenodd"/><path data-name="Vector" fill="none" d="M0-26.5h247.5V221H0z"/></svg>